<svg xmlns="http://www.w3.org/2000/svg" viewBox="0 0 248.77 500"><defs><style>.cls-1{isolation:isolate;}.cls-2{fill:#869fd2;}.cls-3,.cls-6{fill:#e3e8f6;}.cls-3{mix-blend-mode:multiply;}.cls-4{fill:#343d6c;}.cls-5{fill:#869ace;}.cls-7{fill:#4a5eaa;}.cls-8{fill:#c71f49;}.cls-9{fill:#f9b9bf;}.cls-10{fill:#445494;}.cls-11{fill:#f04e5c;}</style></defs><g class="cls-1"><g id="Layer_1" data-name="Layer 1"><path class="cls-2" d="M242.12,3.66l118.79,68a45.05,45.05,0,0,1,22.72,38.91l-.33,295.46,0,19c-1.82,25.9-27.65,36.64-43.31,30.51-.13,0-.22,0-.25-.07a7.57,7.57,0,0,1-1-.54L232.22,377.2a45.35,45.35,0,0,1-22.54-39.08L196.16,152,193.87,29.9C193.15,12.2,216.92-8.54,242.12,3.66Z" transform="translate(-134.86 0)"/><path class="cls-3" d="M232.75,15.65,345.86,80.4a45.29,45.29,0,0,1,22.7,38.89l.38,309.1c.84,25.07-18.8,34-33.91,25.17L217.31,385.5c-13.93-8.12-22.66-22.54-22.65-38.62L193.23,32C193.21,14.65,212.82,3.07,232.75,15.65Z" transform="translate(-134.86 0)"/><path class="cls-4" d="M231.38,19.16,342.85,83a44.62,44.62,0,0,1,22.38,38.34L365.61,426c.82,24.7-18.53,33.49-33.42,24.81l-116-67.09c-13.72-8-22.32-22.21-22.31-38.05L192.43,35.29C192.41,18.17,211.73,6.75,231.38,19.16Z" transform="translate(-134.86 0)"/><polygon class="cls-5" points="221.54 420.33 220.99 177.83 220.89 136.97 67.54 48.87 68.31 268.76 68.53 332.56 221.54 420.33"/><polygon class="cls-6" points="203.88 183.27 203.88 260.29 147.05 227.29 147.05 150.4 203.88 183.27"/><polygon class="cls-7" points="138.48 146.03 138.48 223.05 81.66 190.04 81.66 113.16 138.48 146.03"/><polygon class="cls-7" points="203.88 337.58 203.88 363.64 147.05 330.64 147.05 304.72 203.88 337.58"/><polygon class="cls-6" points="138.48 300.34 138.48 326.4 81.66 293.39 81.66 267.48 138.48 300.34"/><polygon class="cls-6" points="203.88 277.1 203.88 282.36 81.65 211.64 81.65 206.52 203.88 277.1"/><polygon class="cls-6" points="203.88 162.83 203.88 168.09 81.65 97.36 81.65 92.25 203.88 162.83"/><polygon class="cls-6" points="203.88 295.76 203.88 301.06 81.65 230.34 81.65 225.18 203.88 295.76"/><polygon class="cls-8" points="203.88 314.46 203.88 319.72 81.65 249 81.65 243.88 203.88 314.46"/><ellipse class="cls-3" cx="75.61" cy="460.99" rx="75.61" ry="39.01"/><path class="cls-9" d="M303.94,157.27c-.33-.59-.6-1.1-.6-1.1.64-1.84,5.88-6.58,5.05-7.64-2.43-3.11-12.91,8.82-12.91,8.82s1.13-3.21,1.57-4.25a2.52,2.52,0,0,0-.55-2.93c-1.28-.89-2.7.67-3,1.54l-3.89,6.95a9.87,9.87,0,0,0-1.1,3l-.39,2.07c-.43,2.31-2.45,6.51-3,8.09l2.47,9.43c.56-1.34,7-9.29,8.16-10.2a40.74,40.74,0,0,0,4.84-4.27s3.54-3.72,3.8-5.58A5.49,5.49,0,0,0,303.94,157.27Z" transform="translate(-134.86 0)"/><path class="cls-4" d="M203,443.44s0,3.95-4.84,7.5c-.69.51-1.61,1.13-2.6,1.76a67.15,67.15,0,0,0-8.82,7.16,7.29,7.29,0,0,1-4.78,2.21c-3,.15-5.56-.79-5.19-5.25,0-.3.06-.84.12-1.38l.09-.71c.06-.33.24-8.59.27-8.77.36,1.5,2.43-4.33,3.72-4.39,1.94-.09,1.67,4.54,3,3.31,2.36-2.24,4.88-1.21,11.35-4.52l1.25-.2c5-.59,5.79,1.07,6.3,2.6C202.88,443,202.94,443.23,203,443.44Z" transform="translate(-134.86 0)"/><path class="cls-4" d="M240.84,463.83s-4.55-.44-6.08-.5c-3.58-.13-11.41-2.38-13.86-.69-2.79,1.93-9,3.54-9.05-1.65l-3.54,1.14c-.06,1.1-.38,7.53-.4,7.94a9.14,9.14,0,0,0,1.29,5.46c2.35,3.7,9.63,1.55,13.79.7l12.45-1.66c4.52-.92,7.48-4.1,8.3-6.85A3.55,3.55,0,0,0,240.84,463.83Z" transform="translate(-134.86 0)"/><path class="cls-10" d="M174.87,285.25l-1.46,5.39a24.69,24.69,0,0,0-.75,4.07,113.71,113.71,0,0,0-.22,19.44l1,14.15,3.22,116.36c-.31,4.68,15.3,5.15,15.25-.46l3.13-120.63,4.39,1.72,8.42,136.23c0,4.8,15.59,5.26,15.74-.53,0,0,4.61-138.44,5.15-160.16.39-15.31-27.42-11.2-27.42-11.85l14.42-11.27Z" transform="translate(-134.86 0)"/><path class="cls-8" d="M212.83,262s-51,9.09-58.17-2.11c-3.2-5,15.7-56.29,15.7-56.29l4.52-5.6,12.79,3.66c1.7.48,4.16-2.1,4.16-2.1-2.11,6.86-13.09,40.26-15.69,48.1-.4,1.22,37.27,3.81,37.27,3.81C210.54,252.25,210.12,260.81,212.83,262Z" transform="translate(-134.86 0)"/><path class="cls-11" d="M173.7,262.75l-1.51,26c.7,13.17,53.75,15.62,58,6.8.82-1.73,0-21.91-.63-35.2a82.82,82.82,0,0,1,2.11-23c.09-.37.18-.73.27-1.12a17.26,17.26,0,0,1,8.94-11.48c6.53-3.39,20.19-9.1,24.51-11.09a17.16,17.16,0,0,0,6.77-5.5l21.57-28.4c2.38-2.87-8-11.81-10.85-9.64l-25,26.44-14.51,4.79a19.67,19.67,0,0,1-9.92.71c-6.39-1.26-12.86-.37-13.27-.49a31.83,31.83,0,0,1-6.38-2.68c-1.72-.94-2.93-1.64-2.93-1.64l-.27-.12-8.88-4.74L201,192c-.36-.18-1.81.48-3.29,1.18a16.73,16.73,0,0,1-3.56,1.48,21,21,0,0,0-6-1.33,20.47,20.47,0,0,0-2.35,0c-8.49.42-16.95,6.16-16.56,17.52l4.38,45.38A42.74,42.74,0,0,1,173.7,262.75Z" transform="translate(-134.86 0)"/><path class="cls-9" d="M190.29,199.69c0,4.17,6.8,7.58,15.2,7.58,7.07,0,13-2.44,14.68-5.71a33,33,0,0,1-6.38-2.68c-1.72-.94-2.93-1.64-2.93-1.64l-.27-.12-8.88-4.74a24.24,24.24,0,0,0-4,.82,15.42,15.42,0,0,0-3.56,1.48C191.74,196,190.29,197.76,190.29,199.69Z" transform="translate(-134.86 0)"/><path class="cls-9" d="M222.64,181c-2.54,12.57-10.91,13.76-18.76,10-8.75-4.22-14.12-14.51-14.64-22-.79-11.46,6.42-18.94,15.92-19.6C226.81,147.87,223.52,176.66,222.64,181Z" transform="translate(-134.86 0)"/><path class="cls-9" d="M194.56,175.07l.88,25c0,1.17,1.16,2.25,3.16,2.9,3.46,1.14,8.26.65,10.77-1.1a2.84,2.84,0,0,0,1.44-2.35l-.83-25Z" transform="translate(-134.86 0)"/><path class="cls-4" d="M204.52,165.34a13,13,0,0,0,10.72,5.29c1.26,0,2.47-3.14,4.07-4.95,1-1.19,2.61-1.12,3.25-1.69,2.81-2.5,3.25-11.54-3-15.15a24.38,24.38,0,0,0-16.65-2.78c-.64.12,3.39,2.05,2.87,2.45C200.84,152.27,200.3,159.8,204.52,165.34Z" transform="translate(-134.86 0)"/><path class="cls-4" d="M202,184.12l1.85-7.44a12.12,12.12,0,0,1,8-8.59l7.46-2.41c-.45,6.29-3.13,11.48-8.93,17.61a17.72,17.72,0,0,1-8.71,5.39l0-1.21A12.2,12.2,0,0,1,202,184.12Z" transform="translate(-134.86 0)"/><path class="cls-4" d="M202.87,146.06c9.07-.82,16.51,6.65,16.53,17.64,0,.68-.05,1.33-.09,2l-7.46,2.41a12.12,12.12,0,0,0-8,8.59L202,184.12a12.2,12.2,0,0,0-.35,3.35l0,1.21c-5.58,1.25-12-2.9-14.12-10.69C186.41,173.89,176.47,148.45,202.87,146.06Z" transform="translate(-134.86 0)"/><path class="cls-9" d="M216.45,178.39c2.08,2.58,2.41,5.76.74,7.12s-4.73.36-6.81-2.22-2.42-5.77-.74-7.12S214.36,175.81,216.45,178.39Z" transform="translate(-134.86 0)"/></g></g></svg>