<svg id="Layer_1" data-name="Layer 1" xmlns="http://www.w3.org/2000/svg" viewBox="0 0 225.52 500"><defs><style>.cls-1{fill:#343d6c;}.cls-2{fill:#f0909c;}.cls-3{fill:#4e63ad;}.cls-4{fill:#353c65;}.cls-5{fill:#434f80;}.cls-6{fill:#5a72b7;}.cls-7{fill:#f9b9bf;}.cls-8{fill:#cc7f7f;}.cls-9{fill:#f7f9fd;}.cls-10{fill:#a4b6de;}</style></defs><path class="cls-1" d="M278,475.64c-.07-9.2-5.43-27-5.43-27-2.93,2.89-19.42,0-19.42,0-4.34,8.78-7,17.66-14.2,24.34s-18,13.73-18.93,14.87c-3.39,4.22-.45,8.74,3.78,10.51a22.64,22.64,0,0,0,10.85,1.5,31.33,31.33,0,0,0,10.68-3.09l29.14-13.9a6.08,6.08,0,0,0,3.42-4.8A22.5,22.5,0,0,0,278,475.64Z" transform="translate(-158.1 0)"/><path class="cls-1" d="M233.85,452c.91-9-3.53-26.58-3.53-26.58-3.17,2.51-16.28-1.08-16.28-1.08-5.17,8.12-10.38,15.17-18.08,20.95s-19.06,11.51-20.08,12.53c-3.76,3.76-1.37,8.49,2.59,10.67a22.19,22.19,0,0,0,10.44,2.61,30.83,30.83,0,0,0,10.77-1.88l29.95-10.51a5.94,5.94,0,0,0,3.85-4.32C233.65,453.59,233.76,452.79,233.85,452Z" transform="translate(-158.1 0)"/><path class="cls-2" d="M257.73,206.79c-11.33,8.52-22.58,16.42-28.7,21.06-1,.74-7.12,3.68-13.69,6.58a17.22,17.22,0,0,0-4.72-3.93l-24.2-13.78a13.84,13.84,0,0,1,5.92-.95c7.53.41,18.61.54,23.74-1.74a17.41,17.41,0,0,0,3.27-1.78c6.08-4,12.24-10.38,18.11-17.12Z" transform="translate(-158.1 0)"/><path class="cls-3" d="M290.39,92l-19.76,20.63s-9.84,54.44-11.74,56.51c-5.72,6.22-30.7,32-41.39,44.22l17.31,10.21c16.29-10.62,50.13-35.09,55.93-43.51,4.94-7.17,11.31-80.13,11.31-80.13C301.6,97.4,292.92,91.49,290.39,92Z" transform="translate(-158.1 0)"/><path class="cls-4" d="M313.79,263.85l9.8-53.15c-12.67-.72-25.9-1.36-36.08-1.58-10.62-.17-18.28,12.37-18.28,13.57,0,0-69.81,62.41-69.8,77.88,0,20.17,4.89,101.53,7.71,130.13.69,6.93,25.35,6.87,26.46.87,5.35-28.29,8.27-91,8.49-116.42Z" transform="translate(-158.1 0)"/><path class="cls-5" d="M366.11,226.73l-.49-3.06c-11.08-.6-25.09,8.53-33.91,8.35-5.08-.08-9.42-3.64-14.23-.35-1.22.83-13.65-5.22-14.69-4.39s-1.08,2.58-.78,4.81c2.48,18.36-54.33,68.52-54.33,87.18,0,41.14-2.85,106.41,0,135,.73,6.94,28.44,4.71,29,.84,3.91-27.21,15.74-96.27,16-121.7l47.95-39.57C363,276.27,373.79,254.15,366.11,226.73Z" transform="translate(-158.1 0)"/><path class="cls-6" d="M265.89,229.75c5.67,4.59,27.15,15.93,45.35,18.13a165.56,165.56,0,0,0,20.4,1.31c17.24,0,30.73-3.16,37.47-9.25l-.54-2.32a71.45,71.45,0,0,1-1.67-11.22c-.18-2.45-.18-4.89-.12-7.4l.36-8.47-1.5-38.66,18-33.54c0-18.49-15.87-31.86-31.45-41.34-1.19-.72-2.44-1.43-3.7-2.15-.35-.24-.71-.42-1.07-.65l-12.89-7.46L323.57,80.4c-1.19-.53-10.14,4.3-11.27,3.88a32,32,0,0,0-9.49-2.44c-14.68-1.49-32.46,12.47-32.46,32.7l5.92,71.83C279.07,208.51,265.89,229.75,265.89,229.75Z" transform="translate(-158.1 0)"/><path class="cls-7" d="M338.66,89.14V52.85H312.28v37s-10.61,10.59-2.44,15.44C322.69,113,338.66,100.16,338.66,89.14Z" transform="translate(-158.1 0)"/><path class="cls-8" d="M331.28,40.68c-6.69,8-8.14,17.8-3.23,21.92s13.07,1.65,21-7a33.58,33.58,0,0,0,8.13-17.47S338,32.7,331.28,40.68Z" transform="translate(-158.1 0)"/><path class="cls-3" d="M332.83,244.54a92.51,92.51,0,0,0,35.74-6.92,71.45,71.45,0,0,1-1.67-11.22l-11.28-13-4.78-61.21L342,201.16l-7.76,28.29S332.83,243.94,332.83,244.54Z" transform="translate(-158.1 0)"/><path class="cls-2" d="M312.28,57.9V88.28c0,3.14,6.42,5.17,11.69,3,8-3.27,14.68-9.59,14.68-16.4v-17Z" transform="translate(-158.1 0)"/><path class="cls-7" d="M295.29,67.47C299.38,89,313.65,91.22,327.15,84.9c9.1-4.25,16.92-10.82,19-20.31,1.34-6.14,6.07-12,6.48-17.05C354.22,28,342,15,325.81,13.72,288.84,10.72,293.87,60,295.29,67.47Z" transform="translate(-158.1 0)"/><path class="cls-5" d="M289.05,18.5a10.45,10.45,0,0,1,1.74-4.07c3.94-5.94,13.3-7.68,23.76-10.4a41.08,41.08,0,0,1,14.85-1.1c16.73,1.88,29.06,14.34,30.22,27.44.77,9-.44,15.41-2.42,20.05a21.52,21.52,0,0,1-7,9.26c.41-1.4.49-4.07-.44-9.17-.34-1.93-3.63-1.44-5.67,1.19a9.57,9.57,0,0,1-4.41,2.48,4.93,4.93,0,0,1-6.39-4.32,23.39,23.39,0,0,0-.93-4.79c-.17-.49-.3-1-.49-1.46a6.36,6.36,0,0,1,1.1-6.78l5.68-6.65-5.43,4a9.52,9.52,0,0,1-9.42,1.09c-6.59-3-15.24-2.64-21.31-3.16a5.74,5.74,0,0,0-6.26,4.26L295.83,38S286.6,30.77,289.05,18.5Z" transform="translate(-158.1 0)"/><path class="cls-7" d="M339.62,52.41c-3.34,4.72-3.56,10.3-.5,12.47s8.25.11,11.6-4.61,3.56-10.3.5-12.47S343,47.7,339.62,52.41Z" transform="translate(-158.1 0)"/><path class="cls-9" d="M341.9,268a6.13,6.13,0,0,0-3.09-5.62l-88.23-51a12.44,12.44,0,0,0-12.41,0l-53.67,31a6.14,6.14,0,0,0-3.07,5.8l0,3.45a6.18,6.18,0,0,0,3.1,5.1l88.27,51a12.39,12.39,0,0,0,12.41,0l53.63-31a6.14,6.14,0,0,0,3.08-4.89,4.51,4.51,0,0,0,0-.73Z" transform="translate(-158.1 0)"/><path class="cls-10" d="M280.85,298.59l-24.73-60.66a17.63,17.63,0,0,0-7.58-8.65l-77.49-44.09a6,6,0,0,0-6,.35l-.39.22-2.07,1.35a7.55,7.55,0,0,0-3.93,9.73l23.38,60a14.45,14.45,0,0,0,6.27,7.28l80.09,45.91a5.82,5.82,0,0,0,5.85-.17c-.17.09,3.77-2.36,3.77-2.36A7.34,7.34,0,0,0,280.85,298.59Z" transform="translate(-158.1 0)"/><path class="cls-7" d="M302.94,253c15.41-6.12,58.38-20.53,71.16-31.21,5.86-4.89,5.52-79.3,5.52-79.3a4,4,0,0,0-3.72-4.4l-17-1.18a4,4,0,0,0-4.28,3.81c-.44,9.19-.91,51.4-1.2,62a5.7,5.7,0,0,1-4,5.31c-10.86,3.35-29.24,20.24-47.19,26a29.56,29.56,0,0,1-3.75,1.14c-8.83,1.28-25-11.62-26.9-2.91,0,0-17.6,9.4-7.11,19.07,1.8,1.65,15.74,6.76,20,6.64C293,257.71,300.9,253.77,302.94,253Z" transform="translate(-158.1 0)"/><path class="cls-6" d="M298.42,235.15c4.69,1.45,8.31,13.39,5.57,17.4,0,0,58.54-13.06,72.82-30.86,7-8.67,6.08-53.94,6.81-81.44a15.61,15.61,0,0,0-31.2-1.23c-.93,18.07-2.41,54-2.62,61.16a2.38,2.38,0,0,1-1.49,2C344.76,204.14,298.42,235.15,298.42,235.15Z" transform="translate(-158.1 0)"/><path class="cls-1" d="M334.48,60.07c0-8.57,4.94-18.2,11.82-22.17,3-1.76,5.67-2,7.73-1l4.81,2.64-1.44,1a14.8,14.8,0,0,1,1,5.68c0,8.58-5.09,18.49-12.11,22.55a11.25,11.25,0,0,1-3.39,1.28l.62,2.35-4.81-2.82C336.1,68.27,334.48,64.92,334.48,60.07Z" transform="translate(-158.1 0)"/><path class="cls-4" d="M363.22,49c0-8.58-5.09-12.42-12.11-8.36S339.3,54.22,339.3,62.79s4.93,12.7,11.81,8.73S363.22,57.55,363.22,49Z" transform="translate(-158.1 0)"/><path class="cls-5" d="M360.07,51.4c0-5.63-3.33-8.16-7.95-5.49s-7.75,8.93-7.75,14.56,3.24,8.34,7.75,5.73S360.07,57,360.07,51.4Z" transform="translate(-158.1 0)"/><path class="cls-1" d="M287.33,40.19c0,4.84,1.62,8.2,4.27,9.49l2.65,1.43c0-4.48,1.58-13.11,1.58-13.11a22.73,22.73,0,0,1-6.76-11.3A97.27,97.27,0,0,0,287.33,40.19Z" transform="translate(-158.1 0)"/><path class="cls-1" d="M309.78,5.36s10.38-.55,14.83,2.17l11.76,6a24.84,24.84,0,0,1,11.62,21l-.15,4.52,6.61-.4V34.58a31.41,31.41,0,0,0-15-26.73l-12.74-6.4A13.61,13.61,0,0,0,309.78,5.36Z" transform="translate(-158.1 0)"/></svg>