<svg xmlns="http://www.w3.org/2000/svg" viewBox="0 0 320.99 496.79"><defs><style>.cls-1{isolation:isolate;}.cls-2,.cls-5{fill:#e3e8f6;}.cls-13,.cls-14,.cls-2{mix-blend-mode:multiply;}.cls-13,.cls-3{fill:#bbc8e7;}.cls-4{fill:#fff;}.cls-6{fill:#869ace;}.cls-7{fill:#f04e5c;}.cls-8{fill:#445494;}.cls-9{fill:#869fd2;}.cls-10{fill:#f9b9bf;}.cls-11{fill:#343d6c;}.cls-12{fill:#ee9b9c;}</style></defs><g class="cls-1"><g id="Layer_1" data-name="Layer 1"><ellipse class="cls-2" cx="177.74" cy="422.9" rx="143.25" ry="70.86"/><path class="cls-3" d="M121.07,349v76.91c0,39.13,64.13,70.86,143.25,70.86s143.25-31.73,143.25-70.86V349Z" transform="translate(-119.92)"/><path class="cls-4" d="M407.57,357.33c0,39.14-64.14,70.85-143.25,70.85s-143.25-31.71-143.25-70.85V350h286.5Z" transform="translate(-119.92)"/><ellipse class="cls-5" cx="144.39" cy="350.01" rx="143.25" ry="70.86"/><path class="cls-6" d="M155.74,24.62V93.25c-21.61,12.37-34.66,28.5-34.66,46.16V70.82C121.08,53.17,134.13,37,155.74,24.62Z" transform="translate(-119.92)"/><path class="cls-6" d="M178.29,14.15v68.6c23-8.55,51.39-13.75,82.19-14.15V0C229.68.4,201.29,5.59,178.29,14.15Z" transform="translate(-119.92)"/><path class="cls-7" d="M407.57,94.35v68.59c0-21.93-20.17-41.52-51.82-54.53V39.78C387.4,52.79,407.57,72.37,407.57,94.35Z" transform="translate(-119.92)"/><path class="cls-3" d="M121.08,65v71.58c0,15.78,10.45,30.36,28.1,42.13V107.21C131.53,95.42,121.08,80.84,121.08,65Z" transform="translate(-119.92)"/><ellipse class="cls-2" cx="144.4" cy="350.89" rx="78.65" ry="36.78"/><path class="cls-8" d="M237.79,350.07c1.85-5.93,6.52-9.76,10.43-8.56s4.42,6.67,3.75,12.92a8.39,8.39,0,0,1-1.33,3.09A13,13,0,0,0,249,364a18.17,18.17,0,0,1-.83,5.51c-1.26,4-5.33,6.72-8.31,8.19a5,5,0,0,1-6.72-2.36c-1.66-3.51-2.49-8.8-.15-13C234,360.63,237.44,351.19,237.79,350.07Z" transform="translate(-119.92)"/><path class="cls-8" d="M279.42,343.76a32.65,32.65,0,0,1,3.33,3.33c2.32,2.41,5.54,3.83,8.83,5,4.54,1.58,8.22,1.92,10.84,1.25a3.73,3.73,0,0,0,2.11-5.76,49.33,49.33,0,0,0-7.71-7.94c-2.05-1.78-4-3.41-5.48-4.7a10.78,10.78,0,0,1-3.81-7.25c-.15-1.55-.34-2.93-.58-3-5.55-2.09-13.45-.94-14.87,1.72,0,0-1.57,8.19-1.57,10.22a4.35,4.35,0,0,0,2.78,4.34A24.22,24.22,0,0,1,279.42,343.76Z" transform="translate(-119.92)"/><path class="cls-9" d="M229.45,128.94v20.28c0,3.06,5.19,201.12,5.19,201.12,0,5,19.1,5.48,19-1L259.75,205l6-2.12L268.44,328c.12,6,21,4.37,20.08-.46l3-164.66a37.23,37.23,0,0,0-.82-8.55Z" transform="translate(-119.92)"/><path class="cls-10" d="M355.09,118.87c-.58,1.42-7.4,8-9.92,9-4.36,1.81-11.7,4.76-14.7,5.65l-5.05-11.1c.79,0,1.58-.1,2.31-.18a14.44,14.44,0,0,0,2.31-.48c5.49-1.56,12.56-16.7,16-12.12C346,109.64,358.7,110.54,355.09,118.87Z" transform="translate(-119.92)"/><path class="cls-11" d="M330.29,120.63a.84.84,0,0,0-1.22-.53c-7.74,4-23.59,10.28-27.67,12a1.36,1.36,0,0,1-1.88-1c-1.48-8.63-5.27-45.24-7.49-50.33-1.13-2.59-19.47,6.71-19.47,6.71a5.7,5.7,0,0,0-1.45,4.28c.11,1.57-1.09,3.54,0,4.39,4,20.65,13.25,60.52,22.5,62.3,6.4,1.23,31.15-17.75,42.54-26a1.39,1.39,0,0,0,.14-2.12A26.09,26.09,0,0,1,330.29,120.63Z" transform="translate(-119.92)"/><path class="cls-8" d="M291.21,151.77l1.48,22.11c-3.75,3-14.58,6.58-26.7,8-15.68,1.84-27.3-.74-34-5.15a5.59,5.59,0,0,1-2.49-4.51l-.1-2.2v-.32L229,157.93l0-.87,1.15-33.74L218.79,99.6c.05-12.19,10.14-19.49,20.5-25.7.84-.46,1.62-1,2.5-1.43.19-.13.47-.27.7-.41l8.56-4.87,7.31-4.14c.78-.37,6.71,2.85,7.49,2.58a20.47,20.47,0,0,1,6.29-1.57c9.77-1,21.57,8.32,21.52,21.65L290,127.32a82,82,0,0,0,.37,17.51C290.7,147.13,291,149.47,291.21,151.77Z" transform="translate(-119.92)"/><path class="cls-11" d="M270,178.39c-11.61,1.88-29.75-4.55-40.58-8.41v-.32L229,157.93l36,9.93Z" transform="translate(-119.92)"/><path class="cls-11" d="M250.82,156.43c-3.1-.4-8,3.27-10.68,2.22l-3.49-9.1,3-42.75,6.14,34.69,5.1,14.89Z" transform="translate(-119.92)"/><path class="cls-10" d="M248.2,69.47l.1-.29.12-25.55,17.53.08-.11,24.46s1.09.35,1.6.56c1.23.51,1.2,1.7.65,3A8.93,8.93,0,0,1,259.34,77a31.9,31.9,0,0,1-7.92-1.3A4.9,4.9,0,0,1,248.2,69.47Z" transform="translate(-119.92)"/><path class="cls-8" d="M253.32,43.39c4.43,5.3,5.36,11.78,2.08,14.49s-8.69,1-14-4.69a22.09,22.09,0,0,1-5.36-11.56S248.89,38.1,253.32,43.39Z" transform="translate(-119.92)"/><path class="cls-12" d="M265.94,47.05l-.09,20.06c0,2.08-4.29,3.4-7.79,2-5.33-2.19-9.73-6.38-9.71-10.88L248.4,47Z" transform="translate(-119.92)"/><path class="cls-10" d="M277.18,53.44C274.4,67.66,264.9,69.08,256,64.86c-6-2.83-11.22-7.2-12.57-13.47-.88-4.06-4-7.92-4.26-11.28-1-12.93,7.14-21.44,17.93-22.27C281.64,16,278.15,48.52,277.18,53.44Z" transform="translate(-119.92)"/><path class="cls-11" d="M234.54,28.76c1-11.07,14.19-21.41,30-17.27,8.34,2.18,15.68,3.46,16.91,9.64A13.4,13.4,0,0,1,276.9,34l-.25-1.05a3.81,3.81,0,0,0-4.16-2.84c-4,.34-9.77,0-14.17,2a6.28,6.28,0,0,1-6.27-.78l-3.58-2.62,3.78,4.38a4.3,4.3,0,0,1,.7,4.48c-.12.31-.21.67-.32,1L241.93,32a3.8,3.8,0,0,0-5.8,3.21l0,6.81C234.78,39,234,34.69,234.54,28.76Z" transform="translate(-119.92)"/><path class="cls-11" d="M241.93,32l10.7,6.54a15,15,0,0,0-.63,3.1,3.26,3.26,0,0,1-4.26,2.83,6.31,6.31,0,0,1-2.92-1.65c-1.35-1.74-3.53-2.07-3.77-.8-.63,3.36-.59,5.13-.32,6.05a14.41,14.41,0,0,1-4.64-6.05l0-6.81A3.8,3.8,0,0,1,241.93,32Z" transform="translate(-119.92)"/><path class="cls-10" d="M247.78,43.34c2.21,3.12,2.34,6.81.3,8.23s-5.49,0-7.7-3.08-2.34-6.81-.3-8.23S245.57,40.21,247.78,43.34Z" transform="translate(-119.92)"/><path class="cls-10" d="M270,178.57c-9.84-3.93-37.28-13.21-45.42-20C220.86,155.4,220.82,98,220.82,98a2.56,2.56,0,0,1,2.39-2.78l10.9-.7A2.55,2.55,0,0,1,236.84,97c.26,5.84.9,42.75,1.06,49.48a3.61,3.61,0,0,0,2.55,3.38c6.94,2.16,21.45,13.82,32.91,17.55a12.73,12.73,0,0,0,2.3.53c5.64.84,18.38-10.07,19.56-4.53,0,0,11.23,6,4.49,12.14-1.15,1-10.08,4.25-12.79,4.16C281.38,179.52,271.31,179.09,270,178.57Z" transform="translate(-119.92)"/><path class="cls-8" d="M273.36,167c-3,.91-5.13,9.65-3.39,12.2,0,0-38-8.25-47.12-19.6-4.42-5.52-4.15-40.89-4.06-60a9.77,9.77,0,0,1,10.43-9.8,10,10,0,0,1,9.51,9.43c.54,11.48,1.34,42.2,1.46,46.74a1.49,1.49,0,0,0,.94,1.28C243.4,148.49,273.36,167,273.36,167Z" transform="translate(-119.92)"/><path class="cls-13" d="M281.71,121.63l0,71.53c35.6-3.36,66.5-13.29,87.46-27.08V94.55C348.19,108.34,317.29,118.27,281.71,121.63Z" transform="translate(-119.92)"/><path class="cls-3" d="M298.24,165.48l2.54,2.56c60.89,7.86,105.63,35,105.63,67.35,0,38.43-63.75,69.69-142.09,69.69s-142.08-31.26-142.08-69.69c0-32.5,45.48-59.88,107-67.51v-2.34c-62.83,7.82-109.34,36.16-109.34,69.85,0,39.72,64.78,72,144.4,72s144.41-32.27,144.41-72C408.73,201.47,361.63,173.06,298.24,165.48Z" transform="translate(-119.92)"/><g class="cls-14"><path class="cls-7" d="M251.07,191.79v71.53c-32.48-.41-62.23-6.21-85.87-15.59V176.16C188.84,185.58,218.59,191.38,251.07,191.79Z" transform="translate(-119.92)"/></g><path class="cls-13" d="M374.35,220.42v43.77c-10.46,6.89-23.46,12.82-38.22,17.46a232.06,232.06,0,0,1-37,8.14V246C329.56,241.75,355.84,232.6,374.35,220.42Z" transform="translate(-119.92)"/></g></g></svg>