<svg xmlns="http://www.w3.org/2000/svg" viewBox="0 0 347.19 500"><defs><style>.cls-1{isolation:isolate;}.cls-2,.cls-9{fill:#e3e8f6;}.cls-3{fill:#bbc8e7;}.cls-4{fill:#869fd2;}.cls-5{fill:#343d6c;}.cls-6{fill:#445494;}.cls-7{fill:#869ace;}.cls-8{fill:#4a5eaa;}.cls-9{mix-blend-mode:multiply;}.cls-10{fill:#f9b9bf;}.cls-11{fill:#5a72b7;}.cls-12{fill:#f8afad;}.cls-13{fill:#fac6c4;}.cls-14{fill:#545974;}.cls-15{fill:#f8b1b8;}.cls-16{fill:#f04e5c;}</style></defs><g class="cls-1"><g id="Layer_1" data-name="Layer 1"><path class="cls-2" d="M193.77,408l.19-.2c-.76-2.9,1.19-6.25,5.75-8.87l27.77-16a15.28,15.28,0,0,0,7.65-13.23V356.35l51.55-30v9.23a7.63,7.63,0,0,0,11.44,6.61l12.27-7.06c7.08-4.08,17.68-4.83,23.67-1.68l32.33,16.93c2.73,1.44,4,3.44,3.9,5.58.07,0,.07,7.69.07,7.69,0,2.59-2.15,5.37-6.06,7.63L253.8,435c-7.07,4.07-17.67,4.83-23.66,1.68l-32.33-16.93C192.69,416.65,193.77,412.44,193.77,408Z" transform="translate(-86.96 0)"/><polygon class="cls-3" points="148.17 349.89 148.17 305.32 199.72 280.22 199.72 326.4 148.17 356.35 148.17 349.89"/><path class="cls-4" d="M235.08,350.09V305.52l8.58-4.18V364.5A15.23,15.23,0,0,1,236,377.73l-6,3.46a15.21,15.21,0,0,0,5.07-11.31V350.09Z" transform="translate(-86.96 0)"/><path class="cls-3" d="M194,407.6a5.29,5.29,0,0,1,.32-3.16,8,8,0,0,0,3.53,3.95l32.33,16.93c6,3.15,16.59,2.39,23.66-1.68l110.5-63.71c3-1.75,5-3.82,5.7-5.86a5.13,5.13,0,0,1,.29,1.77c.07,0,.07,7.7.07,7.7,0,2.59-2.15,5.37-6.06,7.63L253.8,434.88c-7.07,4.07-17.67,4.83-23.66,1.68l-32.33-16.93c-5.12-3.14-4-7.35-4-11.83Z" transform="translate(-86.96 0)"/><path class="cls-5" d="M420.32,20.87l-8.51,191.74a36.68,36.68,0,0,1-18.26,31.71L123.1,410.65c-12.23,7.1-36.14-.52-36.14-20.11V195.65a36.69,36.69,0,0,1,18.31-31.75l279-161.38C400.33-5.44,420.32,6.75,420.32,20.87Z" transform="translate(-86.96 0)"/><path class="cls-6" d="M420.4,194.18v22.68a36.68,36.68,0,0,1-18.25,31.71l-279,162.08a18.34,18.34,0,0,1-27.55-15.86V382.86Z" transform="translate(-86.96 0)"/><path class="cls-2" d="M95.55,199.9a36.69,36.69,0,0,1,18.31-31.75l279-161.38A18.34,18.34,0,0,1,420.4,22.64V194.18L95.55,382.86Z" transform="translate(-86.96 0)"/><polygon class="cls-7" points="313.13 24.47 313.13 186.77 28.91 351.85 28.91 188.85 313.13 24.47"/><polygon class="cls-2" points="50.12 258.24 50.12 324.58 99.06 296.15 99.06 229.94 50.12 258.24"/><polygon class="cls-2" points="247.94 84.4 181.21 123 181.21 189.22 247.94 150.46 247.94 84.4"/><polygon class="cls-8" points="171.02 127.16 50.12 196.96 50.12 201.51 171.02 131.54 171.02 127.16"/><polygon class="cls-2" points="171.02 143.26 50.12 213.06 50.12 217.61 171.02 147.64 171.02 143.26"/><polygon class="cls-6" points="171.02 159.36 50.12 229.16 50.12 233.7 171.02 163.74 171.02 159.36"/><polygon class="cls-2" points="294.89 58.28 294.89 62.77 258.82 83.6 258.82 79.08 294.89 58.28"/><polygon class="cls-8" points="294.89 91.37 294.89 95.86 258.82 116.69 258.82 112.17 294.89 91.37"/><ellipse class="cls-9" cx="294.09" cy="417.07" rx="53.11" ry="26.44"/><path class="cls-10" d="M295.14,151.85l.52-.95c-.56-1.59-5.06-5.67-4.35-6.58,2.09-2.68,11.12,7.6,11.12,7.6s-1-2.77-1.36-3.67a2.18,2.18,0,0,1,.47-2.52c1.11-.76,2.33.58,2.56,1.33l3.35,6a8.63,8.63,0,0,1,.94,2.6l.34,1.79c.37,2,2.11,5.6,2.56,7l-2.13,8.12c-.48-1.16-6-8-7-8.79a34.73,34.73,0,0,1-4.18-3.68s-3-3.2-3.27-4.8A4.74,4.74,0,0,1,295.14,151.85Z" transform="translate(-86.96 0)"/><path class="cls-6" d="M382.89,398.31s0,3.4,4.17,6.46c.59.44,1.38,1,2.23,1.52a57.57,57.57,0,0,1,7.6,6.17,6.33,6.33,0,0,0,4.11,1.9c2.55.13,4.79-.69,4.48-4.53,0-.26-.05-.72-.1-1.18,0-.21-.06-.41-.08-.62s-.21-7.39-.24-7.55c-.31,1.29-2.09-3.73-3.2-3.78-1.67-.08-1.44,3.91-2.57,2.85-2-1.93-4.2-1-9.78-3.89l-1.07-.17c-4.32-.51-5,.92-5.42,2.23C383,397.93,382.92,398.13,382.89,398.31Z" transform="translate(-86.96 0)"/><path class="cls-6" d="M350.27,415.87s3.92-.38,5.23-.43c3.09-.11,9.84-2.05,11.94-.59,2.4,1.66,7.72,3,7.8-1.43l3,1c.06,1,.33,6.49.35,6.84a7.89,7.89,0,0,1-1.11,4.71c-2,3.18-8.29,1.33-11.88.61l-10.71-1.44a9.34,9.34,0,0,1-7.16-5.9A3.06,3.06,0,0,1,350.27,415.87Z" transform="translate(-86.96 0)"/><path class="cls-5" d="M407.08,262.07l1.27,4.64a22.1,22.1,0,0,1,.64,3.51,98.5,98.5,0,0,1,.19,16.74l-.9,12.19-2.77,100.21c.27,4-13.17,4.44-13.13-.39l-2.7-103.9-3.78,1.49-7.25,117.32c0,4.14-13.43,4.53-13.56-.46,0,0-4-119.23-4.44-137.93-.33-13.18,23.62-9.65,23.62-10.21l-12.42-9.7Z" transform="translate(-86.96 0)"/><path class="cls-8" d="M373.61,242s43.94,7.83,50.1-1.82c2.75-4.31-13.52-48.48-13.52-48.48l-3.9-4.82-11,3.15c-1.47.41-3.58-1.81-3.58-1.81,1.81,5.91,11.27,34.68,13.51,41.43.35,1.05-32.1,3.28-32.1,3.28C375.58,233.65,375.94,241,373.61,242Z" transform="translate(-86.96 0)"/><path class="cls-11" d="M407.31,242.69l1.3,22.37c-.6,11.35-46.29,13.46-49.93,5.86-.71-1.48,0-18.87.54-30.31a71.49,71.49,0,0,0-1.82-19.81c-.08-.31-.16-.62-.23-1a14.89,14.89,0,0,0-7.71-9.89c-5.62-2.91-17.38-7.83-21.1-9.55a14.82,14.82,0,0,1-5.83-4.73L304,171.21c-2.05-2.47,6.93-10.18,9.34-8.3l21.52,22.77,12.5,4.12a16.88,16.88,0,0,0,8.54.61c5.51-1.08,11.09-.31,11.44-.42a27,27,0,0,0,5.49-2.31c1.48-.81,2.52-1.41,2.52-1.41l.24-.1,7.65-4.09.6-.31c.31-.15,1.56.42,2.83,1a14.3,14.3,0,0,0,3.07,1.27,18.09,18.09,0,0,1,5.21-1.14,17.18,17.18,0,0,1,2,0c7.31.36,14.59,5.31,14.26,15.09l-3.78,39.08A36.12,36.12,0,0,0,407.31,242.69Z" transform="translate(-86.96 0)"/><path class="cls-10" d="M393,188.38c0,3.59-5.85,6.53-13.09,6.53-6.08,0-11.24-2.11-12.64-4.92a28.13,28.13,0,0,0,5.49-2.31c1.48-.81,2.52-1.41,2.52-1.41l.24-.1,7.65-4.09a22.32,22.32,0,0,1,3.43.71,13.68,13.68,0,0,1,3.07,1.27C391.77,185.21,393,186.72,393,188.38Z" transform="translate(-86.96 0)"/><path class="cls-10" d="M365.16,172.3c2.19,10.82,9.39,11.85,16.16,8.59,7.54-3.64,12.16-12.5,12.61-19,.68-9.86-5.54-16.31-13.72-16.87C361.57,143.75,364.4,168.55,365.16,172.3Z" transform="translate(-86.96 0)"/><path class="cls-10" d="M389.35,167.18l-.76,21.53c0,1-1,1.94-2.73,2.5-3,1-7.11.56-9.27-1a2.43,2.43,0,0,1-1.24-2l.72-21.53Z" transform="translate(-86.96 0)"/><path class="cls-5" d="M380.76,158.79a11.18,11.18,0,0,1-9.23,4.56c-1.08,0-2.12-2.7-3.5-4.26-.89-1-2.25-1-2.8-1.46-2.42-2.15-2.8-9.94,2.62-13a20.93,20.93,0,0,1,14.34-2.4c.55.11-2.92,1.77-2.48,2.12C383.94,147.54,384.4,154,380.76,158.79Z" transform="translate(-86.96 0)"/><path class="cls-5" d="M383,175l-1.59-6.41a10.42,10.42,0,0,0-6.9-7.39L368,159.09c.39,5.41,2.69,9.89,7.69,15.16a15.2,15.2,0,0,0,7.5,4.65l0-1A10.46,10.46,0,0,0,383,175Z" transform="translate(-86.96 0)"/><path class="cls-5" d="M382.19,142.19c-7.82-.71-14.22,5.72-14.24,15.19,0,.59,0,1.15.08,1.71l6.43,2.08a10.42,10.42,0,0,1,6.9,7.39L383,175a10.46,10.46,0,0,1,.31,2.89l0,1c4.81,1.07,10.31-2.5,12.16-9.21C396.36,166.16,404.93,144.25,382.19,142.19Z" transform="translate(-86.96 0)"/><path class="cls-10" d="M370.49,170c-1.79,2.22-2.08,5-.63,6.14s4.07.31,5.86-1.92,2.08-5,.64-6.13S372.29,167.81,370.49,170Z" transform="translate(-86.96 0)"/><ellipse class="cls-9" cx="159.78" cy="473.56" rx="53.11" ry="26.44"/><path class="cls-12" d="M237.59,356.19l2.95,49.18a34.28,34.28,0,0,0,1.35,7.94l11.66,44.74a11.9,11.9,0,0,0-4.73-1.82c-.5,0-1-.05-1.44-.05h-.82a3.23,3.23,0,0,0-3,2.22c0,.2-.1.4-.13.57,0,0,0,3.3,4.05,6.27.57.42,1.34.95,2.17,1.47a41.12,41.12,0,0,1,6.39,5,6.08,6.08,0,0,0,4,1.85,4.15,4.15,0,0,0,4.35-4.39c0-.25-.05-.7-.1-1.15,0-.2-.05-.4-.08-.6s-.05-.4-.07-.58c-.15-1-.33-2.17-.5-3.24a59.43,59.43,0,0,1-.75-7.29c-.53-10.58-2.25-37.3-6.77-52.07l6.29-53.41Z" transform="translate(-86.96 0)"/><path class="cls-13" d="M220.84,475.76l7.92-.65a7.68,7.68,0,0,0,5.59-2.56,3,3,0,0,0,.66-2.67c-4.39-19.08-26.3-120.61-15.36-143.66,12.21-25.75,38.69-5.27,38.69-5.27s8,18.87,4,29.87c-3.52,9.88-18.91,14-18.91,14l-2.73,44.62c2.65,16,5,65,5.83,69.67a10.44,10.44,0,0,1-.94,6.45c-2,3-6.49,1.93-10,1.23l-10.29-2a9,9,0,0,1-6.94-5.73A3,3,0,0,1,220.84,475.76Z" transform="translate(-86.96 0)"/><path class="cls-14" d="M243.54,458.4c0,.2-.1.4-.13.57a7.39,7.39,0,0,0,1.92,4.3c-.15-2.08-.27-4.27-.44-6.57A3.11,3.11,0,0,0,243.54,458.4Z" transform="translate(-86.96 0)"/><path class="cls-5" d="M243.41,459s0,3.3,4.05,6.27c.57.42,1.34.95,2.17,1.47a41.12,41.12,0,0,1,6.39,5,6.08,6.08,0,0,0,4,1.85c2.47.12,4.65-.67,4.35-4.39,0-.25-.05-.7-.1-1.15,0-.2-.05-.4-.08-.6s-.05-.43-.07-.58c-.3,1.25-1.68,1.58-2.75,1.53a6.31,6.31,0,0,1-4.15-1.49c-2-1.87-16.12-9.95-7.37-10.48l-1-.16c-4.2-.5-4.86.89-5.28,2.17C243.49,458.6,243.44,458.8,243.41,459Z" transform="translate(-86.96 0)"/><path class="cls-3" d="M262.38,350.82c1.55-4.37,1.25-9.95.28-15.12A79.26,79.26,0,0,0,258.34,321s-25.49-20-38.69,5.27a30.16,30.16,0,0,0-2.75,9.46c-5.74,37.29,17.53,133.83,17.53,133.83a3.58,3.58,0,0,0,2.34,1.44,2.37,2.37,0,0,0,.65.15c3,.55,7.24-.07,8.81-2,0,0-3.91-50.12-5.49-59.71l.08-1.21a35.27,35.27,0,0,0,1.07,5.1L252.5,455a6.16,6.16,0,0,0,3.07,1.5l.67.14c2.5.48,5.5.23,6.84-1.59,0,0,.38-36.79-7-50.8Z" transform="translate(-86.96 0)"/><polygon class="cls-7" points="154.72 391.51 156.8 355.38 164.83 351.85 154.72 391.51"/><path class="cls-5" d="M220.84,475.76l5.08-.42c-2,.57-2.7,2.42-.65,3.83,2.33,1.61,21.23,4.27,21.3-.08.09.86.13,1.55.15,1.89a7.64,7.64,0,0,1-1.09,4.56c-2,3.09-6.49,1.93-10,1.23l-10.29-2a9,9,0,0,1-6.94-5.73A3,3,0,0,1,220.84,475.76Z" transform="translate(-86.96 0)"/><path class="cls-5" d="M226.22,306.73s40.22,8.12,46.09-.61c2.62-3.9-11.91-46.82-11.91-46.82l-3-2.54-10.19,2.66c-1.36.35-3.26-1.74-3.26-1.74,1.54,5.47,9.63,32.12,11.54,38.37.3,1-29.57,2.33-29.57,2.33C228.21,299.06,228.39,305.84,226.22,306.73Z" transform="translate(-86.96 0)"/><path class="cls-15" d="M243.46,258a12.75,12.75,0,0,1-8.21,4.17,16.51,16.51,0,0,1-4.07-.53c-2.44-.67-6.61-2-8.72-2.74.7-.43,1.41-.88,2.14-1.3l2.52-1.45,9.17-5.29,5.75,2A3.23,3.23,0,0,1,243.46,258Z" transform="translate(-86.96 0)"/><path class="cls-13" d="M218.11,241c2.66,11.13,10.16,11.93,17,8.31,7.67-4.05,12.13-13.39,12.36-20.11.35-10.24-6.33-16.69-14.82-17C213.35,211.54,217.19,237.12,218.11,241Z" transform="translate(-86.96 0)"/><path class="cls-15" d="M243,234.79V257.1c0,1-1,2-2.73,2.69-3,1.12-7.34.84-9.63-.64a2.55,2.55,0,0,1-1.36-2l-.05-22.31Z" transform="translate(-86.96 0)"/><path class="cls-15" d="M182,298.81l-4.3,7c-2.52-1.74-4.07-2.89-4.07-2.89a30.3,30.3,0,0,1-6.17-2.15,5.74,5.74,0,0,1-1.64-8.92l.42-.48s-3-2.73-3.72-3.35-1.13-1.48-.8-2.06c.63-1.13,1.79-.6,2.77.07,1.84,1.25,7.4,4.95,7.4,4.95a8.22,8.22,0,0,1,1.91,1.86l1,1.41a10.7,10.7,0,0,0,4.54,3.49S180.32,298.14,182,298.81Z" transform="translate(-86.96 0)"/><path class="cls-5" d="M259.59,294.15,261,282.29l1.93-16.14c.09-11.37-7.69-15.95-15.51-14.92a16.48,16.48,0,0,0-4.47,1.2c-.61.25-5.28-2.31-5.89-2l-.77.45L229.05,255l-1.93,1.11-2.52,1.45c-.71.42-1.43.86-2.14,1.3l-.45.25a38.41,38.41,0,0,0-8.61,6.56,15.63,15.63,0,0,0-4,8.83s-3.38,28.43-4,31.67c-.25,1.34-27-8.93-27-8.93-1.74.63-3.89,4.73-3.47,6.53,0,0,30.1,22,40,14.72.85-.64,1.83-2.84,2.83-5.91.4,8.7-1.57,15.77-1.25,17.23a.37.37,0,0,0,.1.21c10.64,7.8,41.72,5.82,45.25-2.81.48-1.18-2.12-9.38-2.92-12.89C257.45,307.68,258.77,301,259.59,294.15Z" transform="translate(-86.96 0)"/><path class="cls-16" d="M217.83,215.67c5-6.86,24.47-11.15,37.84-.81a13.77,13.77,0,0,0,2,1.58,19.4,19.4,0,0,1,8.3,9.26,22.21,22.21,0,0,1,1.87,11.2,6.15,6.15,0,0,0,1.56,4.62,15.34,15.34,0,0,1,2.4,3.78c2.67,5.95,1.59,12.68-2.29,16a7.94,7.94,0,0,1-1.52,1.08,8.12,8.12,0,0,1-2,.78c.68,4.61-.64,9.08-3.58,11.63a8,8,0,0,1-1.52,1.07c-4.25,2.33-9.48.52-12.85-4l-.47.29c-7,3.83-16-.43-20.08-9.52-2.65-5.91-2.6-12.41-.28-17.29a14.78,14.78,0,0,1,1.29-2.22,26.29,26.29,0,0,1-5.6-8.33,6.61,6.61,0,0,0-2.68-3.15c-.24-.14-.47-.29-.7-.45C214.83,228,214,220.9,217.83,215.67Z" transform="translate(-86.96 0)"/><path class="cls-13" d="M223.55,238.43c-1.78,2.37-2,5.22-.44,6.37s4.23.18,6-2.19,2-5.22.44-6.37S225.33,236.07,223.55,238.43Z" transform="translate(-86.96 0)"/></g></g></svg>